<?xml version="1.0" standalone="no"?>
<svg xmlns:xlink="http://www.w3.org/1999/xlink" id="wave" style="transform:rotate(0deg); transition: 0.3s"
     viewBox="0 0 1440 490" version="1.1" xmlns="http://www.w3.org/2000/svg">
  <defs>
    <linearGradient id="sw-gradient-0" x1="0" x2="0" y1="1" y2="0">
      <stop stop-color="#8920FE" offset="0%"/>
      <stop stop-color="#6284F9" offset="50%"/>
    </linearGradient>
  </defs>
  <path style="transform:translate(0, 0px); opacity:1" fill="url(#sw-gradient-0)"
        d="M0,441L80,416.5C160,392,320,343,480,277.7C640,212,800,131,960,147C1120,163,1280,278,1440,326.7C1600,376,1760,359,1920,351.2C2080,343,2240,343,2400,326.7C2560,310,2720,278,2880,236.8C3040,196,3200,147,3360,114.3C3520,82,3680,65,3840,73.5C4000,82,4160,114,4320,171.5C4480,229,4640,310,4800,294C4960,278,5120,163,5280,155.2C5440,147,5600,245,5760,245C5920,245,6080,147,6240,98C6400,49,6560,49,6720,89.8C6880,131,7040,212,7200,277.7C7360,343,7520,392,7680,367.5C7840,343,8000,245,8160,179.7C8320,114,8480,82,8640,122.5C8800,163,8960,278,9120,326.7C9280,376,9440,359,9600,343C9760,327,9920,310,10080,318.5C10240,327,10400,359,10560,375.7C10720,392,10880,392,11040,326.7C11200,261,11360,131,11440,65.3L11520,0L11520,490L11440,490C11360,490,11200,490,11040,490C10880,490,10720,490,10560,490C10400,490,10240,490,10080,490C9920,490,9760,490,9600,490C9440,490,9280,490,9120,490C8960,490,8800,490,8640,490C8480,490,8320,490,8160,490C8000,490,7840,490,7680,490C7520,490,7360,490,7200,490C7040,490,6880,490,6720,490C6560,490,6400,490,6240,490C6080,490,5920,490,5760,490C5600,490,5440,490,5280,490C5120,490,4960,490,4800,490C4640,490,4480,490,4320,490C4160,490,4000,490,3840,490C3680,490,3520,490,3360,490C3200,490,3040,490,2880,490C2720,490,2560,490,2400,490C2240,490,2080,490,1920,490C1760,490,1600,490,1440,490C1280,490,1120,490,960,490C800,490,640,490,480,490C320,490,160,490,80,490L0,490Z"/>
</svg>
